<?xml version="1.0" encoding="UTF-8"?>
<svg xmlns="http://www.w3.org/2000/svg"  viewBox="0 0 100 100" width="100px" height="100px">
  <defs>
    <style>
      .cls-1 {
        fill: #fff;
      }

      .cls-2 {
        fill: #fb7369;
      }

      .cls-3 {
        fill: #4a254b;
      }
    </style>
  </defs>
  <path class="cls-2" d="m36.52,12.01c-3.03,0-5.49,2.43-5.54,5.46-.35,19.49-3.88,38.82-10.49,57.05-.85,2.34.85,4.82,3.14,4.54,7.75-.92,14.99-2.54,20.5-5.87,1.14-.69,2.55-.39,3.33.74,3.47,5.05,8.5,10.46,14.46,16.12,1.61,1.53,4.14.79,4.88-1.42,7.69-22.8,11.8-46.8,12.2-70.98.05-3.1-2.46-5.65-5.56-5.65h-36.92Z"/>
  <circle class="cls-1" cx="41.92" cy="44.03" r="5.5"/>
  <circle class="cls-1" cx="60.84" cy="45.69" r="5.5"/>
  <path class="cls-3" d="m47.48,50.04c-.31-.03-.56.23-.54.54.13,1.92,1.64,3.51,3.61,3.69s3.74-1.13,4.2-3c.07-.3-.13-.6-.44-.63l-6.83-.6Z"/>
  <circle class="cls-3" cx="41.92" cy="44.03" r="2.5"/>
  <circle class="cls-3" cx="60.84" cy="45.69" r="2.5"/>
</svg>